<mxfile host="65bd71144e">
    <diagram id="coc3EGXfQWDvE41swb3h" name="domain_model">
        <mxGraphModel dx="609" dy="620" grid="1" gridSize="10" guides="1" tooltips="1" connect="1" arrows="1" fold="1" page="1" pageScale="1" pageWidth="3300" pageHeight="4681" math="0" shadow="0" adaptiveColors="simple">
            <root>
                <mxCell id="0"/>
                <mxCell id="1" parent="0"/>
                <mxCell id="2" value="" style="whiteSpace=wrap;html=1;aspect=fixed;align=left;" vertex="1" parent="1">
                    <mxGeometry x="50" y="50" width="460" height="460" as="geometry"/>
                </mxCell>
                <mxCell id="TrrAOXWdy0jqJTiozj3v-25" style="edgeStyle=none;html=1;entryX=0.25;entryY=0;entryDx=0;entryDy=0;exitX=0.64;exitY=0.967;exitDx=0;exitDy=0;exitPerimeter=0;endArrow=diamond;endFill=1;strokeWidth=2;" parent="1" source="TrrAOXWdy0jqJTiozj3v-3" edge="1">
                    <mxGeometry relative="1" as="geometry">
                        <mxPoint x="150.00486486486489" y="180" as="sourcePoint"/>
                        <mxPoint x="360.14" y="360" as="targetPoint"/>
                        <Array as="points">
                            <mxPoint x="160" y="320"/>
                            <mxPoint x="360" y="320"/>
                        </Array>
                    </mxGeometry>
                </mxCell>
                <mxCell id="TrrAOXWdy0jqJTiozj3v-26" value="1" style="edgeLabel;html=1;align=center;verticalAlign=middle;resizable=0;points=[];fontSize=16;" parent="TrrAOXWdy0jqJTiozj3v-25" vertex="1" connectable="0">
                    <mxGeometry x="0.8757" y="-1" relative="1" as="geometry">
                        <mxPoint as="offset"/>
                    </mxGeometry>
                </mxCell>
                <mxCell id="TrrAOXWdy0jqJTiozj3v-27" value="1" style="edgeLabel;html=1;align=center;verticalAlign=middle;resizable=0;points=[];fontSize=16;" parent="TrrAOXWdy0jqJTiozj3v-25" vertex="1" connectable="0">
                    <mxGeometry x="-0.9405" y="1" relative="1" as="geometry">
                        <mxPoint as="offset"/>
                    </mxGeometry>
                </mxCell>
                <mxCell id="TrrAOXWdy0jqJTiozj3v-29" value="associate" style="edgeLabel;html=1;align=center;verticalAlign=middle;resizable=0;points=[];" parent="TrrAOXWdy0jqJTiozj3v-25" vertex="1" connectable="0">
                    <mxGeometry x="-0.5171" relative="1" as="geometry">
                        <mxPoint as="offset"/>
                    </mxGeometry>
                </mxCell>
                <mxCell id="TrrAOXWdy0jqJTiozj3v-1" value="News" style="swimlane;fontStyle=0;childLayout=stackLayout;horizontal=1;startSize=30;horizontalStack=0;resizeParent=1;resizeParentMax=0;resizeLast=0;collapsible=1;marginBottom=0;whiteSpace=wrap;html=1;rounded=1;sketch=1;curveFitting=1;jiggle=2;" parent="1" vertex="1">
                    <mxGeometry x="70" y="90" width="140" height="90" as="geometry"/>
                </mxCell>
                <mxCell id="TrrAOXWdy0jqJTiozj3v-2" value="title: String" style="text;strokeColor=none;fillColor=none;align=left;verticalAlign=middle;spacingLeft=4;spacingRight=4;overflow=hidden;points=[[0,0.5],[1,0.5]];portConstraint=eastwest;rotatable=0;whiteSpace=wrap;html=1;rounded=1;sketch=1;curveFitting=1;jiggle=2;" parent="TrrAOXWdy0jqJTiozj3v-1" vertex="1">
                    <mxGeometry y="30" width="140" height="30" as="geometry"/>
                </mxCell>
                <mxCell id="TrrAOXWdy0jqJTiozj3v-3" value="publishDate:DateTime" style="text;strokeColor=none;fillColor=none;align=left;verticalAlign=middle;spacingLeft=4;spacingRight=4;overflow=hidden;points=[[0,0.5],[1,0.5]];portConstraint=eastwest;rotatable=0;whiteSpace=wrap;html=1;rounded=1;sketch=1;curveFitting=1;jiggle=2;" parent="TrrAOXWdy0jqJTiozj3v-1" vertex="1">
                    <mxGeometry y="60" width="140" height="30" as="geometry"/>
                </mxCell>
                <mxCell id="TrrAOXWdy0jqJTiozj3v-7" value="Author" style="swimlane;fontStyle=0;childLayout=stackLayout;horizontal=1;startSize=30;horizontalStack=0;resizeParent=1;resizeParentMax=0;resizeLast=0;collapsible=1;marginBottom=0;whiteSpace=wrap;html=1;rounded=1;sketch=1;curveFitting=1;jiggle=2;" parent="1" vertex="1">
                    <mxGeometry x="320" y="90" width="140" height="90" as="geometry"/>
                </mxCell>
                <mxCell id="TrrAOXWdy0jqJTiozj3v-8" value="name: String" style="text;strokeColor=none;fillColor=none;align=left;verticalAlign=middle;spacingLeft=4;spacingRight=4;overflow=hidden;points=[[0,0.5],[1,0.5]];portConstraint=eastwest;rotatable=0;whiteSpace=wrap;html=1;rounded=1;sketch=1;curveFitting=1;jiggle=2;" parent="TrrAOXWdy0jqJTiozj3v-7" vertex="1">
                    <mxGeometry y="30" width="140" height="30" as="geometry"/>
                </mxCell>
                <mxCell id="TrrAOXWdy0jqJTiozj3v-9" value="email:String" style="text;strokeColor=none;fillColor=none;align=left;verticalAlign=middle;spacingLeft=4;spacingRight=4;overflow=hidden;points=[[0,0.5],[1,0.5]];portConstraint=eastwest;rotatable=0;whiteSpace=wrap;html=1;rounded=1;sketch=1;curveFitting=1;jiggle=2;" parent="TrrAOXWdy0jqJTiozj3v-7" vertex="1">
                    <mxGeometry y="60" width="140" height="30" as="geometry"/>
                </mxCell>
                <mxCell id="TrrAOXWdy0jqJTiozj3v-12" value="User" style="swimlane;fontStyle=0;childLayout=stackLayout;horizontal=1;startSize=30;horizontalStack=0;resizeParent=1;resizeParentMax=0;resizeLast=0;collapsible=1;marginBottom=0;whiteSpace=wrap;html=1;rounded=1;sketch=1;curveFitting=1;jiggle=2;" parent="1" vertex="1">
                    <mxGeometry x="210" y="210" width="140" height="90" as="geometry">
                        <mxRectangle x="210" y="210" width="70" height="30" as="alternateBounds"/>
                    </mxGeometry>
                </mxCell>
                <mxCell id="TrrAOXWdy0jqJTiozj3v-13" value="username: String" style="text;strokeColor=none;fillColor=none;align=left;verticalAlign=middle;spacingLeft=4;spacingRight=4;overflow=hidden;points=[[0,0.5],[1,0.5]];portConstraint=eastwest;rotatable=0;whiteSpace=wrap;html=1;rounded=1;sketch=1;curveFitting=1;jiggle=2;" parent="TrrAOXWdy0jqJTiozj3v-12" vertex="1">
                    <mxGeometry y="30" width="140" height="30" as="geometry"/>
                </mxCell>
                <mxCell id="TrrAOXWdy0jqJTiozj3v-14" value="email:String" style="text;strokeColor=none;fillColor=none;align=left;verticalAlign=middle;spacingLeft=4;spacingRight=4;overflow=hidden;points=[[0,0.5],[1,0.5]];portConstraint=eastwest;rotatable=0;whiteSpace=wrap;html=1;rounded=1;sketch=1;curveFitting=1;jiggle=2;" parent="TrrAOXWdy0jqJTiozj3v-12" vertex="1">
                    <mxGeometry y="60" width="140" height="30" as="geometry"/>
                </mxCell>
                <mxCell id="TrrAOXWdy0jqJTiozj3v-15" value="Source" style="swimlane;fontStyle=0;childLayout=stackLayout;horizontal=1;startSize=30;horizontalStack=0;resizeParent=1;resizeParentMax=0;resizeLast=0;collapsible=1;marginBottom=0;whiteSpace=wrap;html=1;rounded=1;sketch=1;curveFitting=1;jiggle=2;" parent="1" vertex="1">
                    <mxGeometry x="320" y="360" width="140" height="90" as="geometry"/>
                </mxCell>
                <mxCell id="TrrAOXWdy0jqJTiozj3v-16" value="name: String" style="text;strokeColor=none;fillColor=none;align=left;verticalAlign=middle;spacingLeft=4;spacingRight=4;overflow=hidden;points=[[0,0.5],[1,0.5]];portConstraint=eastwest;rotatable=0;whiteSpace=wrap;html=1;rounded=1;sketch=1;curveFitting=1;jiggle=2;" parent="TrrAOXWdy0jqJTiozj3v-15" vertex="1">
                    <mxGeometry y="30" width="140" height="30" as="geometry"/>
                </mxCell>
                <mxCell id="TrrAOXWdy0jqJTiozj3v-17" value="url:String" style="text;strokeColor=none;fillColor=none;align=left;verticalAlign=middle;spacingLeft=4;spacingRight=4;overflow=hidden;points=[[0,0.5],[1,0.5]];portConstraint=eastwest;rotatable=0;whiteSpace=wrap;html=1;rounded=1;sketch=1;curveFitting=1;jiggle=2;" parent="TrrAOXWdy0jqJTiozj3v-15" vertex="1">
                    <mxGeometry y="60" width="140" height="30" as="geometry"/>
                </mxCell>
                <mxCell id="TrrAOXWdy0jqJTiozj3v-18" value="News Catigory" style="swimlane;fontStyle=0;childLayout=stackLayout;horizontal=1;startSize=30;horizontalStack=0;resizeParent=1;resizeParentMax=0;resizeLast=0;collapsible=1;marginBottom=0;whiteSpace=wrap;html=1;rounded=1;sketch=1;curveFitting=1;jiggle=2;" parent="1" vertex="1">
                    <mxGeometry x="80" y="360" width="140" height="90" as="geometry"/>
                </mxCell>
                <mxCell id="TrrAOXWdy0jqJTiozj3v-19" value="name: String" style="text;strokeColor=none;fillColor=none;align=left;verticalAlign=middle;spacingLeft=4;spacingRight=4;overflow=hidden;points=[[0,0.5],[1,0.5]];portConstraint=eastwest;rotatable=0;whiteSpace=wrap;html=1;rounded=1;sketch=1;curveFitting=1;jiggle=2;" parent="TrrAOXWdy0jqJTiozj3v-18" vertex="1">
                    <mxGeometry y="30" width="140" height="30" as="geometry"/>
                </mxCell>
                <mxCell id="TrrAOXWdy0jqJTiozj3v-20" value="url:String" style="text;strokeColor=none;fillColor=none;align=left;verticalAlign=middle;spacingLeft=4;spacingRight=4;overflow=hidden;points=[[0,0.5],[1,0.5]];portConstraint=eastwest;rotatable=0;whiteSpace=wrap;html=1;rounded=1;sketch=1;curveFitting=1;jiggle=2;" parent="TrrAOXWdy0jqJTiozj3v-18" vertex="1">
                    <mxGeometry y="60" width="140" height="30" as="geometry"/>
                </mxCell>
                <mxCell id="TrrAOXWdy0jqJTiozj3v-21" style="edgeStyle=none;html=1;fontSize=21;endArrow=diamond;endFill=0;strokeWidth=2;" parent="1" edge="1">
                    <mxGeometry relative="1" as="geometry">
                        <mxPoint x="120" y="181" as="sourcePoint"/>
                        <mxPoint x="120" y="360" as="targetPoint"/>
                    </mxGeometry>
                </mxCell>
                <mxCell id="TrrAOXWdy0jqJTiozj3v-22" value="*" style="edgeLabel;html=1;align=center;verticalAlign=middle;resizable=0;points=[];fontSize=17;" parent="TrrAOXWdy0jqJTiozj3v-21" vertex="1" connectable="0">
                    <mxGeometry x="-0.8305" y="3" relative="1" as="geometry">
                        <mxPoint as="offset"/>
                    </mxGeometry>
                </mxCell>
                <mxCell id="TrrAOXWdy0jqJTiozj3v-23" value="1" style="edgeLabel;html=1;align=center;verticalAlign=middle;resizable=0;points=[];fontSize=15;" parent="TrrAOXWdy0jqJTiozj3v-21" vertex="1" connectable="0">
                    <mxGeometry x="0.6887" y="1" relative="1" as="geometry">
                        <mxPoint as="offset"/>
                    </mxGeometry>
                </mxCell>
                <mxCell id="TrrAOXWdy0jqJTiozj3v-28" value="Has a" style="edgeLabel;html=1;align=center;verticalAlign=middle;resizable=0;points=[];" parent="TrrAOXWdy0jqJTiozj3v-21" vertex="1" connectable="0">
                    <mxGeometry x="-0.1061" y="-3" relative="1" as="geometry">
                        <mxPoint as="offset"/>
                    </mxGeometry>
                </mxCell>
                <mxCell id="TrrAOXWdy0jqJTiozj3v-30" style="edgeStyle=none;html=1;entryX=0.222;entryY=-0.003;entryDx=0;entryDy=0;entryPerimeter=0;endArrow=none;endFill=0;" parent="1" source="TrrAOXWdy0jqJTiozj3v-3" target="TrrAOXWdy0jqJTiozj3v-12" edge="1">
                    <mxGeometry relative="1" as="geometry">
                        <Array as="points">
                            <mxPoint x="240" y="160"/>
                        </Array>
                    </mxGeometry>
                </mxCell>
                <mxCell id="TrrAOXWdy0jqJTiozj3v-31" value="*" style="edgeLabel;html=1;align=center;verticalAlign=middle;resizable=0;points=[];fontSize=16;" parent="TrrAOXWdy0jqJTiozj3v-30" vertex="1" connectable="0">
                    <mxGeometry x="0.7353" y="-1" relative="1" as="geometry">
                        <mxPoint as="offset"/>
                    </mxGeometry>
                </mxCell>
                <mxCell id="TrrAOXWdy0jqJTiozj3v-32" value="*" style="edgeLabel;html=1;align=center;verticalAlign=middle;resizable=0;points=[];fontSize=16;" parent="TrrAOXWdy0jqJTiozj3v-30" vertex="1" connectable="0">
                    <mxGeometry x="-0.761" relative="1" as="geometry">
                        <mxPoint as="offset"/>
                    </mxGeometry>
                </mxCell>
                <mxCell id="TrrAOXWdy0jqJTiozj3v-33" value="book mark" style="edgeLabel;html=1;align=center;verticalAlign=middle;resizable=0;points=[];" parent="TrrAOXWdy0jqJTiozj3v-30" vertex="1" connectable="0">
                    <mxGeometry x="0.1346" y="-2" relative="1" as="geometry">
                        <mxPoint as="offset"/>
                    </mxGeometry>
                </mxCell>
                <mxCell id="TrrAOXWdy0jqJTiozj3v-34" style="edgeStyle=none;html=1;entryX=1;entryY=0.25;entryDx=0;entryDy=0;endArrow=none;endFill=0;exitX=0.529;exitY=0.995;exitDx=0;exitDy=0;exitPerimeter=0;" parent="1" source="TrrAOXWdy0jqJTiozj3v-9" target="TrrAOXWdy0jqJTiozj3v-12" edge="1">
                    <mxGeometry relative="1" as="geometry">
                        <mxPoint x="380" y="191" as="sourcePoint"/>
                        <mxPoint x="411" y="240" as="targetPoint"/>
                        <Array as="points">
                            <mxPoint x="394" y="200"/>
                            <mxPoint x="394" y="230"/>
                        </Array>
                    </mxGeometry>
                </mxCell>
                <mxCell id="TrrAOXWdy0jqJTiozj3v-35" value="*" style="edgeLabel;html=1;align=center;verticalAlign=middle;resizable=0;points=[];fontSize=16;" parent="TrrAOXWdy0jqJTiozj3v-34" vertex="1" connectable="0">
                    <mxGeometry x="0.7353" y="-1" relative="1" as="geometry">
                        <mxPoint as="offset"/>
                    </mxGeometry>
                </mxCell>
                <mxCell id="TrrAOXWdy0jqJTiozj3v-36" value="*" style="edgeLabel;html=1;align=center;verticalAlign=middle;resizable=0;points=[];fontSize=16;" parent="TrrAOXWdy0jqJTiozj3v-34" vertex="1" connectable="0">
                    <mxGeometry x="-0.761" relative="1" as="geometry">
                        <mxPoint as="offset"/>
                    </mxGeometry>
                </mxCell>
                <mxCell id="TrrAOXWdy0jqJTiozj3v-38" value="follow" style="edgeLabel;html=1;align=center;verticalAlign=middle;resizable=0;points=[];" parent="TrrAOXWdy0jqJTiozj3v-34" vertex="1" connectable="0">
                    <mxGeometry x="-0.3217" y="1" relative="1" as="geometry">
                        <mxPoint as="offset"/>
                    </mxGeometry>
                </mxCell>
                <mxCell id="3" value="Domain Model - News Application" style="text;html=1;align=left;verticalAlign=middle;whiteSpace=wrap;rounded=0;fontSize=20;" vertex="1" parent="1">
                    <mxGeometry x="57" y="52" width="333" height="30" as="geometry"/>
                </mxCell>
            </root>
        </mxGraphModel>
    </diagram>
    <diagram id="tq5-rSG9NUoEyjcmxCig" name="sequence_diagram">
        <mxGraphModel dx="655" dy="668" grid="1" gridSize="10" guides="1" tooltips="1" connect="1" arrows="1" fold="1" page="1" pageScale="1" pageWidth="850" pageHeight="1100" math="0" shadow="0">
            <root>
                <mxCell id="0"/>
                <mxCell id="1" parent="0"/>
                <mxCell id="GHtfPFfqu28AI1PfPYh1-6" value="" style="rounded=1;whiteSpace=wrap;html=1;" vertex="1" parent="1">
                    <mxGeometry x="180" y="50" width="550" height="420" as="geometry"/>
                </mxCell>
                <mxCell id="GHtfPFfqu28AI1PfPYh1-1" value="" style="shape=umlLifeline;perimeter=lifelinePerimeter;whiteSpace=wrap;html=1;container=1;dropTarget=0;collapsible=0;recursiveResize=0;outlineConnect=0;portConstraint=eastwest;newEdgeStyle={&quot;curved&quot;:0,&quot;rounded&quot;:0};participant=umlActor;" vertex="1" parent="1">
                    <mxGeometry x="210" y="80" width="20" height="370" as="geometry"/>
                </mxCell>
                <mxCell id="GHtfPFfqu28AI1PfPYh1-11" value="App" style="shape=umlLifeline;perimeter=lifelinePerimeter;whiteSpace=wrap;html=1;container=1;dropTarget=0;collapsible=0;recursiveResize=0;outlineConnect=0;portConstraint=eastwest;newEdgeStyle={&quot;edgeStyle&quot;:&quot;elbowEdgeStyle&quot;,&quot;elbow&quot;:&quot;vertical&quot;,&quot;curved&quot;:0,&quot;rounded&quot;:0};" vertex="1" parent="1">
                    <mxGeometry x="250" y="75" width="100" height="355" as="geometry"/>
                </mxCell>
                <mxCell id="GHtfPFfqu28AI1PfPYh1-15" value="" style="html=1;points=[[0,0,0,0,5],[0,1,0,0,-5],[1,0,0,0,5],[1,1,0,0,-5]];perimeter=orthogonalPerimeter;outlineConnect=0;targetShapes=umlLifeline;portConstraint=eastwest;newEdgeStyle={&quot;curved&quot;:0,&quot;rounded&quot;:0};" vertex="1" parent="GHtfPFfqu28AI1PfPYh1-11">
                    <mxGeometry x="45" y="75" width="10" height="25" as="geometry"/>
                </mxCell>
                <mxCell id="GHtfPFfqu28AI1PfPYh1-12" value="Local Storage" style="shape=umlLifeline;perimeter=lifelinePerimeter;whiteSpace=wrap;html=1;container=1;dropTarget=0;collapsible=0;recursiveResize=0;outlineConnect=0;portConstraint=eastwest;newEdgeStyle={&quot;edgeStyle&quot;:&quot;elbowEdgeStyle&quot;,&quot;elbow&quot;:&quot;vertical&quot;,&quot;curved&quot;:0,&quot;rounded&quot;:0};" vertex="1" parent="1">
                    <mxGeometry x="367" y="75" width="100" height="325" as="geometry"/>
                </mxCell>
                <mxCell id="GHtfPFfqu28AI1PfPYh1-13" value="UI" style="shape=umlLifeline;perimeter=lifelinePerimeter;whiteSpace=wrap;html=1;container=1;dropTarget=0;collapsible=0;recursiveResize=0;outlineConnect=0;portConstraint=eastwest;newEdgeStyle={&quot;edgeStyle&quot;:&quot;elbowEdgeStyle&quot;,&quot;elbow&quot;:&quot;vertical&quot;,&quot;curved&quot;:0,&quot;rounded&quot;:0};" vertex="1" parent="1">
                    <mxGeometry x="600" y="75" width="100" height="365" as="geometry"/>
                </mxCell>
                <mxCell id="GHtfPFfqu28AI1PfPYh1-41" value="" style="html=1;points=[[0,0,0,0,5],[0,1,0,0,-5],[1,0,0,0,5],[1,1,0,0,-5]];perimeter=orthogonalPerimeter;outlineConnect=0;targetShapes=umlLifeline;portConstraint=eastwest;newEdgeStyle={&quot;curved&quot;:0,&quot;rounded&quot;:0};" vertex="1" parent="GHtfPFfqu28AI1PfPYh1-13">
                    <mxGeometry x="46" y="345" width="10" height="25" as="geometry"/>
                </mxCell>
                <mxCell id="GHtfPFfqu28AI1PfPYh1-14" value="API" style="shape=umlLifeline;perimeter=lifelinePerimeter;whiteSpace=wrap;html=1;container=1;dropTarget=0;collapsible=0;recursiveResize=0;outlineConnect=0;portConstraint=eastwest;newEdgeStyle={&quot;edgeStyle&quot;:&quot;elbowEdgeStyle&quot;,&quot;elbow&quot;:&quot;vertical&quot;,&quot;curved&quot;:0,&quot;rounded&quot;:0};" vertex="1" parent="1">
                    <mxGeometry x="483" y="75" width="100" height="315" as="geometry"/>
                </mxCell>
                <mxCell id="GHtfPFfqu28AI1PfPYh1-16" value="&amp;lt;&amp;lt;Open App&amp;gt;&amp;gt;" style="html=1;verticalAlign=bottom;startArrow=oval;endArrow=block;startSize=8;curved=0;rounded=0;entryX=0;entryY=0;entryDx=0;entryDy=5;" edge="1" target="GHtfPFfqu28AI1PfPYh1-15" parent="1" source="GHtfPFfqu28AI1PfPYh1-1">
                    <mxGeometry relative="1" as="geometry">
                        <mxPoint x="225" y="155" as="sourcePoint"/>
                    </mxGeometry>
                </mxCell>
                <mxCell id="GHtfPFfqu28AI1PfPYh1-26" value="News Exist" style="shape=umlFrame;whiteSpace=wrap;html=1;pointerEvents=0;width=67;height=30;" vertex="1" parent="1">
                    <mxGeometry x="270" y="180" width="410" height="230" as="geometry"/>
                </mxCell>
                <mxCell id="GHtfPFfqu28AI1PfPYh1-27" value="" style="endArrow=none;html=1;entryX=1.002;entryY=0.445;entryDx=0;entryDy=0;entryPerimeter=0;exitX=0.003;exitY=0.43;exitDx=0;exitDy=0;exitPerimeter=0;" edge="1" parent="1">
                    <mxGeometry width="50" height="50" relative="1" as="geometry">
                        <mxPoint x="271.23" y="267.20000000000005" as="sourcePoint"/>
                        <mxPoint x="680.8199999999999" y="270.80000000000007" as="targetPoint"/>
                    </mxGeometry>
                </mxCell>
                <mxCell id="GHtfPFfqu28AI1PfPYh1-28" value="IF" style="text;html=1;align=center;verticalAlign=middle;whiteSpace=wrap;rounded=0;" vertex="1" parent="1">
                    <mxGeometry x="270" y="210" width="18" height="30" as="geometry"/>
                </mxCell>
                <mxCell id="GHtfPFfqu28AI1PfPYh1-29" value="Else" style="text;html=1;align=center;verticalAlign=middle;whiteSpace=wrap;rounded=0;" vertex="1" parent="1">
                    <mxGeometry x="272" y="283" width="20" height="30" as="geometry"/>
                </mxCell>
                <mxCell id="GHtfPFfqu28AI1PfPYh1-30" value="" style="html=1;points=[[0,0,0,0,5],[0,1,0,0,-5],[1,0,0,0,5],[1,1,0,0,-5]];perimeter=orthogonalPerimeter;outlineConnect=0;targetShapes=umlLifeline;portConstraint=eastwest;newEdgeStyle={&quot;curved&quot;:0,&quot;rounded&quot;:0};" vertex="1" parent="1">
                    <mxGeometry x="412" y="222" width="10" height="35" as="geometry"/>
                </mxCell>
                <mxCell id="GHtfPFfqu28AI1PfPYh1-31" value="featch cashed" style="html=1;verticalAlign=bottom;endArrow=block;curved=0;rounded=0;entryX=0;entryY=0;entryDx=0;entryDy=5;" edge="1" target="GHtfPFfqu28AI1PfPYh1-30" parent="1">
                    <mxGeometry relative="1" as="geometry">
                        <mxPoint x="300" y="227" as="sourcePoint"/>
                    </mxGeometry>
                </mxCell>
                <mxCell id="GHtfPFfqu28AI1PfPYh1-32" value="&lt;span style=&quot;color: rgb(0, 0, 0);&quot;&gt;retreive list of news&lt;/span&gt;" style="html=1;verticalAlign=bottom;endArrow=open;dashed=1;endSize=8;curved=0;rounded=0;exitX=0;exitY=1;exitDx=0;exitDy=-5;" edge="1" source="GHtfPFfqu28AI1PfPYh1-30" parent="1">
                    <mxGeometry relative="1" as="geometry">
                        <mxPoint x="300.0652173913043" y="252" as="targetPoint"/>
                    </mxGeometry>
                </mxCell>
                <mxCell id="GHtfPFfqu28AI1PfPYh1-33" value="" style="html=1;points=[[0,0,0,0,5],[0,1,0,0,-5],[1,0,0,0,5],[1,1,0,0,-5]];perimeter=orthogonalPerimeter;outlineConnect=0;targetShapes=umlLifeline;portConstraint=eastwest;newEdgeStyle={&quot;curved&quot;:0,&quot;rounded&quot;:0};" vertex="1" parent="1">
                    <mxGeometry x="410" y="366" width="10" height="35" as="geometry"/>
                </mxCell>
                <mxCell id="GHtfPFfqu28AI1PfPYh1-34" value="featch cashed" style="html=1;verticalAlign=bottom;endArrow=block;curved=0;rounded=0;entryX=0;entryY=0;entryDx=0;entryDy=5;" edge="1" target="GHtfPFfqu28AI1PfPYh1-33" parent="1">
                    <mxGeometry relative="1" as="geometry">
                        <mxPoint x="298" y="371" as="sourcePoint"/>
                    </mxGeometry>
                </mxCell>
                <mxCell id="GHtfPFfqu28AI1PfPYh1-35" value="&lt;span style=&quot;color: rgb(0, 0, 0);&quot;&gt;retreive list of news&lt;/span&gt;" style="html=1;verticalAlign=bottom;endArrow=open;dashed=1;endSize=8;curved=0;rounded=0;exitX=0;exitY=1;exitDx=0;exitDy=-5;" edge="1" source="GHtfPFfqu28AI1PfPYh1-33" parent="1">
                    <mxGeometry relative="1" as="geometry">
                        <mxPoint x="298.0652173913043" y="396" as="targetPoint"/>
                    </mxGeometry>
                </mxCell>
                <mxCell id="GHtfPFfqu28AI1PfPYh1-36" value="featch News" style="html=1;verticalAlign=bottom;endArrow=block;curved=0;rounded=0;entryX=0;entryY=0.086;entryDx=0;entryDy=0;entryPerimeter=0;" edge="1" parent="1" target="GHtfPFfqu28AI1PfPYh1-37">
                    <mxGeometry relative="1" as="geometry">
                        <mxPoint x="300" y="290" as="sourcePoint"/>
                        <mxPoint x="412" y="290" as="targetPoint"/>
                    </mxGeometry>
                </mxCell>
                <mxCell id="GHtfPFfqu28AI1PfPYh1-37" value="" style="html=1;points=[[0,0,0,0,5],[0,1,0,0,-5],[1,0,0,0,5],[1,1,0,0,-5]];perimeter=orthogonalPerimeter;outlineConnect=0;targetShapes=umlLifeline;portConstraint=eastwest;newEdgeStyle={&quot;curved&quot;:0,&quot;rounded&quot;:0};" vertex="1" parent="1">
                    <mxGeometry x="528" y="287" width="10" height="35" as="geometry"/>
                </mxCell>
                <mxCell id="GHtfPFfqu28AI1PfPYh1-38" value="&lt;span style=&quot;color: rgb(0, 0, 0);&quot;&gt;list of news&lt;/span&gt;" style="html=1;verticalAlign=bottom;endArrow=open;dashed=1;endSize=8;curved=0;rounded=0;exitX=0;exitY=1;exitDx=0;exitDy=-5;" edge="1" parent="1" target="GHtfPFfqu28AI1PfPYh1-11">
                    <mxGeometry relative="1" as="geometry">
                        <mxPoint x="416.0652173913043" y="320" as="targetPoint"/>
                        <mxPoint x="528" y="320" as="sourcePoint"/>
                    </mxGeometry>
                </mxCell>
                <mxCell id="GHtfPFfqu28AI1PfPYh1-39" value="Update Local Cash" style="html=1;verticalAlign=bottom;endArrow=block;curved=0;rounded=0;" edge="1" parent="1">
                    <mxGeometry relative="1" as="geometry">
                        <mxPoint x="300" y="340" as="sourcePoint"/>
                        <mxPoint x="410" y="340" as="targetPoint"/>
                    </mxGeometry>
                </mxCell>
                <mxCell id="GHtfPFfqu28AI1PfPYh1-40" value="" style="html=1;points=[[0,0,0,0,5],[0,1,0,0,-5],[1,0,0,0,5],[1,1,0,0,-5]];perimeter=orthogonalPerimeter;outlineConnect=0;targetShapes=umlLifeline;portConstraint=eastwest;newEdgeStyle={&quot;curved&quot;:0,&quot;rounded&quot;:0};" vertex="1" parent="1">
                    <mxGeometry x="410" y="336" width="10" height="19" as="geometry"/>
                </mxCell>
                <mxCell id="GHtfPFfqu28AI1PfPYh1-42" value="update UI" style="html=1;verticalAlign=bottom;startArrow=oval;endArrow=block;startSize=8;curved=0;rounded=0;entryX=0;entryY=0;entryDx=0;entryDy=5;" edge="1" parent="1">
                    <mxGeometry relative="1" as="geometry">
                        <mxPoint x="299.63043478260875" y="427" as="sourcePoint"/>
                        <mxPoint x="646" y="427" as="targetPoint"/>
                    </mxGeometry>
                </mxCell>
                <mxCell id="GHtfPFfqu28AI1PfPYh1-43" value="&lt;span style=&quot;color: rgb(0, 0, 0);&quot;&gt;&amp;lt;&amp;lt;render Articles&amp;gt;&amp;gt;&lt;/span&gt;" style="html=1;verticalAlign=bottom;endArrow=open;dashed=1;endSize=8;curved=0;rounded=0;" edge="1" parent="1">
                    <mxGeometry relative="1" as="geometry">
                        <mxPoint x="219.07142857142856" y="445" as="targetPoint"/>
                        <mxPoint x="650" y="445" as="sourcePoint"/>
                    </mxGeometry>
                </mxCell>
            </root>
        </mxGraphModel>
    </diagram>
</mxfile>